<svg width="12" height="12" viewBox="0 0 12 12" fill="none" xmlns="http://www.w3.org/2000/svg">
<path d="M10.4033 4.6153L3.31577 0.246428C2.80301 -0.0692515 2.18306 -0.0823765 1.65738 0.211319C1.1317 0.504967 0.817871 1.03983 0.817871 1.64197V10.3399C0.817871 11.2504 1.55147 11.995 2.45311 12C2.45557 12 2.45803 12 2.46044 12C2.74221 12 3.03584 11.9116 3.31008 11.7443C3.5307 11.6097 3.60042 11.3217 3.46582 11.1012C3.33122 10.8805 3.04322 10.8108 2.82267 10.9454C2.6944 11.0236 2.56912 11.0641 2.45815 11.0641C2.11795 11.0622 1.75371 10.7708 1.75371 10.3399V1.64199C1.75371 1.38369 1.88833 1.1543 2.1138 1.02833C2.3393 0.90235 2.6052 0.907975 2.82488 1.04323L9.91241 5.4121C10.1254 5.54326 10.2473 5.76195 10.2468 6.01212C10.2463 6.26227 10.1235 6.48048 9.90932 6.61119L4.785 9.74872C4.5646 9.88367 4.49532 10.1717 4.63027 10.3921C4.7652 10.6125 5.05327 10.6818 5.27368 10.5469L10.3974 7.4097C10.888 7.11043 11.1815 6.58871 11.1827 6.014C11.1839 5.43936 10.8924 4.91642 10.4033 4.6153Z" fill="#6A7A99"/>
</svg>
