<svg width="17" height="13" viewBox="0 0 17 13" fill="none" xmlns="http://www.w3.org/2000/svg">
<path d="M4.2038 12.3335C3.12591 12.3335 2.1558 11.8994 1.29348 11.0312C0.43116 10.1319 0 8.81412 0 7.07768C0 5.09319 0.523551 3.48078 1.57065 2.24047C2.64855 0.969153 4.17301 0.333496 6.14402 0.333496C6.85235 0.333496 7.4067 0.380006 7.80707 0.473028V2.61256C7.37591 2.55055 6.82156 2.51954 6.14402 2.51954C5.09692 2.51954 4.25 2.87613 3.60326 3.58931C2.98732 4.20946 2.63315 5.03117 2.54076 6.05442C2.94112 5.5583 3.58786 5.31024 4.48098 5.31024C5.40489 5.31024 6.19022 5.63582 6.83696 6.28699C7.4837 6.90714 7.80707 7.72885 7.80707 8.7521C7.80707 9.80636 7.4683 10.6746 6.79076 11.3568C6.11322 12.0079 5.25091 12.3335 4.2038 12.3335ZM13.3967 12.3335C12.3188 12.3335 11.3487 11.8994 10.4864 11.0312C9.62409 10.1319 9.19293 8.81412 9.19293 7.07768C9.19293 5.09319 9.71649 3.48078 10.7636 2.24047C11.8415 0.969153 13.3659 0.333496 15.337 0.333496C16.0453 0.333496 16.5996 0.380006 17 0.473028V2.61256C16.5688 2.55055 16.0145 2.51954 15.337 2.51954C14.2899 2.51954 13.4429 2.87613 12.7962 3.58931C12.1803 4.20946 11.8261 5.03117 11.7337 6.05442C12.1341 5.5583 12.7808 5.31024 13.6739 5.31024C14.5978 5.31024 15.3831 5.63582 16.0299 6.28699C16.6766 6.90714 17 7.72885 17 8.7521C17 9.80636 16.6612 10.6746 15.9837 11.3568C15.3062 12.0079 14.4438 12.3335 13.3967 12.3335Z" fill="#52DE97"/>
</svg>
