<svg width="16" height="16" viewBox="0 0 16 16" fill="none" xmlns="http://www.w3.org/2000/svg">
<g id="bar-chart (2) 1" clip-path="url(#clip0_285_105)">
<g id="Group">
<g id="Group_2">
<path id="Vector" d="M2.15506 9.18042C0.966781 9.18042 0 10.1472 0 11.3355V13.8448C0 15.0331 0.966781 15.9999 2.15509 15.9999C3.34341 15.9999 4.31016 15.0331 4.31016 13.8448V11.3355C4.31016 10.1472 3.34337 9.18042 2.15506 9.18042ZM3.06013 13.8448C3.06013 14.3439 2.65412 14.7499 2.15506 14.7499C1.65603 14.7499 1.25 14.3439 1.25 13.8448V11.3355C1.25 10.8364 1.65603 10.4304 2.15509 10.4304C2.65416 10.4304 3.06016 10.8365 3.06013 11.3355V13.8448Z" fill="#6A7A99"/>
</g>
</g>
<g id="Group_3">
<g id="Group_4">
<path id="Vector_2" d="M7.99981 0C6.8115 0 5.84473 0.966781 5.84473 2.15509V13.8449C5.84473 15.0332 6.8115 16 7.99981 16C9.18812 16 10.1549 15.0332 10.1549 13.8449V2.15509C10.1549 0.966781 9.18812 0 7.99981 0ZM8.9049 13.8449C8.9049 14.344 8.49887 14.75 7.99981 14.75C7.50075 14.75 7.09472 14.344 7.09472 13.8449V2.15509C7.09472 1.656 7.50075 1.25 7.99981 1.25C8.49887 1.25 8.9049 1.656 8.9049 2.15509V13.8449Z" fill="#6A7A99"/>
</g>
</g>
<g id="Group_5">
<g id="Group_6">
<path id="Vector_3" d="M13.8445 4.59033C12.6562 4.59033 11.6895 5.55711 11.6895 6.74543V13.845C11.6895 15.0333 12.6562 16.0001 13.8445 16.0001C15.0328 16.0001 15.9996 15.0333 15.9996 13.845V6.74543C15.9996 5.55711 15.0328 4.59033 13.8445 4.59033ZM14.7496 13.845C14.7496 14.3441 14.3436 14.7501 13.8445 14.7501C13.3455 14.7501 12.9395 14.3441 12.9395 13.845V6.74543C12.9395 6.24633 13.3455 5.84033 13.8445 5.84033C14.3436 5.84033 14.7496 6.24633 14.7496 6.74543V13.845Z" fill="#6A7A99"/>
</g>
</g>
</g>
<defs>
<clipPath id="clip0_285_105">
<rect width="16" height="16" fill="white"/>
</clipPath>
</defs>
</svg>
